<svg xmlns="http://www.w3.org/2000/svg" width="340" height="316" viewBox="0 0 340 316"><rect width="100%" height="100%" rx="6" fill="#181818"/><path d="M9 13 l4 4 l4 -4" fill="none" stroke="#cccccc" stroke-width="1.2"/><svg x="22" y="7" width="16" height="16" viewBox="0 0 16 16"><path d="M14.483 6H4.721a1 1 0 0 0-.949.684L2 12V5h12a1 1 0 0 0-1-1H7.562a1 1 0 0 1-.64-.232l-.644-.536A1 1 0 0 0 5.638 3H2a1 1 0 0 0-1 1v8a1 1 0 0 0 1 1h11l2.403-5.606A1 1 0 0 0 14.483 6" fill="#90a4ae" /></svg><text x="44" y="19.5" font-family="Segoe UI, -apple-system, BlinkMacSystemFont, Helvetica, Arial, sans-serif" font-size="13" fill="#cccccc">SavesV2</text><text x="328" y="19.5" font-family="Segoe UI, -apple-system, BlinkMacSystemFont, Helvetica, Arial, sans-serif" font-size="12" text-anchor="end" fill="#cccccc">40</text><line x1="16" y1="26" x2="16" y2="48" stroke="#404040" stroke-width="1"/><path d="M21 35 l4 4 l4 -4" fill="none" stroke="#cccccc" stroke-width="1.2"/><svg x="34" y="29" width="16" height="16" viewBox="0 0 16 16"><path d="M14.483 6H4.721a1 1 0 0 0-.949.684L2 12V5h12a1 1 0 0 0-1-1H7.562a1 1 0 0 1-.64-.232l-.644-.536A1 1 0 0 0 5.638 3H2a1 1 0 0 0-1 1v8a1 1 0 0 0 1 1h11l2.403-5.606A1 1 0 0 0 14.483 6" fill="#90a4ae" /></svg><text x="56" y="41.5" font-family="Segoe UI, -apple-system, BlinkMacSystemFont, Helvetica, Arial, sans-serif" font-size="13" fill="#cccccc">decisions</text><line x1="16" y1="48" x2="16" y2="70" stroke="#404040" stroke-width="1"/><line x1="28" y1="48" x2="28" y2="70" stroke="#404040" stroke-width="1"/><svg x="46" y="51" width="16" height="16" viewBox="0 0 32 32"><path fill="#ffc107" d="M30 14H17.738a8 8 0 1 0 0 4H24v4h4v-4h2Zm-20 5a3 3 0 1 1 3-3 3.003 3.003 0 0 1-3 3"/></svg><text x="68" y="63.5" font-family="Segoe UI, -apple-system, BlinkMacSystemFont, Helvetica, Arial, sans-serif" font-size="13" fill="#5aa0ff">SAVE-OD-1_Compression.md</text><line x1="16" y1="70" x2="16" y2="92" stroke="#404040" stroke-width="1"/><line x1="28" y1="70" x2="28" y2="92" stroke="#404040" stroke-width="1"/><svg x="46" y="73" width="16" height="16" viewBox="0 0 32 32"><path fill="#4caf50" d="M30 14H17.738a8 8 0 1 0 0 4H24v4h4v-4h2Zm-20 5a3 3 0 1 1 3-3 3.003 3.003 0 0 1-3 3"/></svg><text x="68" y="85.5" font-family="Segoe UI, -apple-system, BlinkMacSystemFont, Helvetica, Arial, sans-serif" font-size="13" fill="#3cb371">SAVE-OD-2_One_File.md</text><line x1="16" y1="92" x2="16" y2="114" stroke="#404040" stroke-width="1"/><path d="M21 101 l4 4 l4 -4" fill="none" stroke="#cccccc" stroke-width="1.2"/><svg x="34" y="95" width="16" height="16" viewBox="0 0 16 16"><path id="folder" fill="#00bfa5" d="M14.483 6H4.721a1 1 0 0 0-.949.684L2 12V5h12a1 1 0 0 0-1-1H7.562a1 1 0 0 1-.64-.232l-.644-.536A1 1 0 0 0 5.638 3H2a1 1 0 0 0-1 1v8a1 1 0 0 0 1 1h11l2.403-5.606A1 1 0 0 0 14.483 6"/><path id="motive" fill="#a7ffeb" d="M8 6v1h1v6a2 2 0 0 0 4 0V7h1V6Zm2.5 7a.5.5 0 1 1 .5-.5.5.5 0 0 1-.5.5m1-2a.5.5 0 1 1 .5-.5.5.5 0 0 1-.5.5m.5-2h-2V7h2z"/></svg><text x="56" y="107.5" font-family="Segoe UI, -apple-system, BlinkMacSystemFont, Helvetica, Arial, sans-serif" font-size="13" fill="#cccccc">spec</text><line x1="16" y1="114" x2="16" y2="136" stroke="#404040" stroke-width="1"/><line x1="28" y1="114" x2="28" y2="136" stroke="#404040" stroke-width="1"/><svg x="46" y="117" width="16" height="16" viewBox="0 0 24 24" fill="none"><path fill="#2196f3" d="M6.278 22 6 19.556l3.167-8.723a4.37 4.37 0 0 0 1.944 1.056l-3.055 8.389zm11.666 0-1.777-1.722-3.056-8.39q.556-.138 1.042-.402a4.4 4.4 0 0 0 .903-.653l3.166 8.723zm-5.833-11.111q-1.389 0-2.361-.972-.972-.973-.972-2.361 0-1.084.624-1.932.626-.846 1.598-1.18V2h2.222v2.444a3.27 3.27 0 0 1 1.598 1.18q.624.849.624 1.932 0 1.389-.972 2.36-.972.973-2.36.973Zm0-2.222q.473 0 .792-.32t.32-.791q0-.473-.32-.793a1.08 1.08 0 0 0-.792-.319q-.472 0-.791.32t-.32.792.32.79q.319.32.791.32Z"/></svg><text x="68" y="129.5" font-family="Segoe UI, -apple-system, BlinkMacSystemFont, Helvetica, Arial, sans-serif" font-size="13" fill="#6cb6ff">01_Saves_v2.md</text><line x1="16" y1="136" x2="16" y2="158" stroke="#404040" stroke-width="1"/><path d="M21 145 l4 4 l4 -4" fill="none" stroke="#cccccc" stroke-width="1.2"/><svg x="34" y="139" width="16" height="16" viewBox="0 0 16 16"><path id="folder" fill="#5c6bc0" d="M14.483 6H4.721a1 1 0 0 0-.949.684L2 12V5h12a1 1 0 0 0-1-1H7.562a1 1 0 0 1-.64-.232l-.644-.536A1 1 0 0 0 5.638 3H2a1 1 0 0 0-1 1v8a1 1 0 0 0 1 1h11l2.403-5.606A1 1 0 0 0 14.483 6"/><path id="motive" fill="#c5cae9" d="M9 5v1a1 1 0 0 0-1 1v6a1 1 0 0 0 1 1h6a1 1 0 0 0 1-1V7a1 1 0 0 0-1-1V5h-1v1h-4V5zm0 3h6v5H9zm4.318 1-1.77 1.627-.859-.805-.689.733L11.54 12 14 9.74z"/></svg><text x="56" y="151.5" font-family="Segoe UI, -apple-system, BlinkMacSystemFont, Helvetica, Arial, sans-serif" font-size="13" fill="#cccccc">tasks</text><line x1="16" y1="158" x2="16" y2="180" stroke="#404040" stroke-width="1"/><line x1="28" y1="158" x2="28" y2="180" stroke="#404040" stroke-width="1"/><svg x="46" y="161" width="16" height="16" viewBox="0 0 24 24"><path fill="#4caf50" d="M9 3 8 6H4l1 4-3 2 3 2-1 4h4l1 3 3-2 3 2 1-3h4l-1-4 3-2-3-2 1-4h-4l-1-3-3 2zm7 5 1 1-7 7-3-3 1-1 2 2z"/></svg><text x="68" y="173.5" font-family="Segoe UI, -apple-system, BlinkMacSystemFont, Helvetica, Arial, sans-serif" font-size="13" fill="#3cb371">SAVE-V0_Decisions.md</text><line x1="16" y1="180" x2="16" y2="202" stroke="#404040" stroke-width="1"/><line x1="28" y1="180" x2="28" y2="202" stroke="#404040" stroke-width="1"/><svg x="46" y="183" width="16" height="16" viewBox="0 0 24 24"><path fill="#4caf50" d="M9 3 8 6H4l1 4-3 2 3 2-1 4h4l1 3 3-2 3 2 1-3h4l-1-4 3-2-3-2 1-4h-4l-1-3-3 2zm7 5 1 1-7 7-3-3 1-1 2 2z"/></svg><text x="68" y="195.5" font-family="Segoe UI, -apple-system, BlinkMacSystemFont, Helvetica, Arial, sans-serif" font-size="13" fill="#3cb371">SAVE-V1_Container.md</text><line x1="16" y1="202" x2="16" y2="224" stroke="#404040" stroke-width="1"/><line x1="28" y1="202" x2="28" y2="224" stroke="#404040" stroke-width="1"/><svg x="46" y="205" width="16" height="16" viewBox="0 0 32 32"><path fill="#00bcd4" d="M17 17a4 4 0 1 1-4 4 4.005 4.005 0 0 1 4-4m0-3a7 7 0 1 0 7 7 7 7 0 0 0-7-7"/><path fill="#00bcd4" d="m19.586 26.414 2.828-2.828L26 27.17 23.17 30zM10 26H6V4h9.172L22 10.828V12h2v-2l-8-8H6a2 2 0 0 0-2 2v22a2 2 0 0 0 2 2h4Z"/><path fill="#00bcd4" d="M22 12h-8V4h2l6 6zm0 0h2v2h-2z"/></svg><text x="68" y="217.5" font-family="Segoe UI, -apple-system, BlinkMacSystemFont, Helvetica, Arial, sans-serif" font-size="13" fill="#22b8cf">SAVE-V2_Pieces.md</text><line x1="16" y1="224" x2="16" y2="246" stroke="#404040" stroke-width="1"/><line x1="28" y1="224" x2="28" y2="246" stroke="#404040" stroke-width="1"/><svg x="46" y="227" width="16" height="16" viewBox="0 0 24 24" fill="none"><path d="M0 0h24v24H0z"/><path fill="#ffc107" d="M19.43 12.98c.04-.32.07-.64.07-.98s-.03-.66-.07-.98l2.11-1.65c.19-.15.24-.42.12-.64l-2-3.46a.5.5 0 0 0-.61-.22l-2.49 1c-.52-.4-1.08-.73-1.69-.98l-.38-2.65A.49.49 0 0 0 14 2h-4c-.25 0-.46.18-.49.42l-.38 2.65c-.61.25-1.17.59-1.69.98l-2.49-1a.6.6 0 0 0-.18-.03c-.17 0-.34.09-.43.25l-2 3.46c-.13.22-.07.49.12.64l2.11 1.65c-.04.32-.07.65-.07.98s.03.66.07.98l-2.11 1.65c-.19.15-.24.42-.12.64l2 3.46a.5.5 0 0 0 .61.22l2.49-1c.52.4 1.08.73 1.69.98l.38 2.65c.03.24.24.42.49.42h4c.25 0 .46-.18.49-.42l.38-2.65c.61-.25 1.17-.59 1.69-.98l2.49 1q.09.03.18.03c.17 0 .34-.09.43-.25l2-3.46c.12-.22.07-.49-.12-.64zm-1.98-1.71c.04.31.05.52.05.73s-.02.43-.05.73l-.14 1.13.89.7 1.08.84-.7 1.21-1.27-.51-1.04-.42-.9.68c-.43.32-.84.56-1.25.73l-1.06.43-.16 1.13-.2 1.35h-1.4l-.19-1.35-.16-1.13-1.06-.43c-.43-.18-.83-.41-1.23-.71l-.91-.7-1.06.43-1.27.51-.7-1.21 1.08-.84.89-.7-.14-1.13c-.03-.31-.05-.54-.05-.74s.02-.43.05-.73l.14-1.13-.89-.7-1.08-.84.7-1.21 1.27.51 1.04.42.9-.68c.43-.32.84-.56 1.25-.73l1.06-.43.16-1.13.2-1.35h1.39l.19 1.35.16 1.13 1.06.43c.43.18.83.41 1.23.71l.91.7 1.06-.43 1.27-.51.7 1.21-1.07.85-.89.7zM12 8c-2.21 0-4 1.79-4 4s1.79 4 4 4 4-1.79 4-4-1.79-4-4-4m0 6c-1.1 0-2-.9-2-2s.9-2 2-2 2 .9 2 2-.9 2-2 2"/></svg><text x="68" y="239.5" font-family="Segoe UI, -apple-system, BlinkMacSystemFont, Helvetica, Arial, sans-serif" font-size="13" fill="#e0a800">SAVE-V3_Saving.md</text><line x1="16" y1="246" x2="16" y2="268" stroke="#404040" stroke-width="1"/><line x1="28" y1="246" x2="28" y2="268" stroke="#404040" stroke-width="1"/><svg x="46" y="249" width="16" height="16" viewBox="0 0 32 32"><path fill="#f44336" d="M25 12h-3V8a6 6 0 0 0-12 0v4H7a1 1 0 0 0-1 1v16a1 1 0 0 0 1 1h18a1 1 0 0 0 1-1V13a1 1 0 0 0-1-1M14 8a2 2 0 0 1 4 0v4h-4Zm2 17a4 4 0 1 1 4-4 4 4 0 0 1-4 4"/></svg><text x="68" y="261.5" font-family="Segoe UI, -apple-system, BlinkMacSystemFont, Helvetica, Arial, sans-serif" font-size="13" fill="#f0605d">SAVE-V4_Session.md</text><line x1="16" y1="268" x2="16" y2="290" stroke="#404040" stroke-width="1"/><line x1="28" y1="268" x2="28" y2="290" stroke="#404040" stroke-width="1"/><svg x="46" y="271" width="16" height="16" viewBox="0 0 32 32"><path fill="#616161" d="M16 2a14 14 0 1 0 14 14A14 14 0 0 0 16 2m-1.667 22.143L6.92 16.73l3.293-3.293 4.12 4.107 7.455-7.44 3.294 3.293Z"/></svg><text x="68" y="283.5" font-family="Segoe UI, -apple-system, BlinkMacSystemFont, Helvetica, Arial, sans-serif" font-size="13" fill="#5a5f66">SAVE-V9_Importer.md</text><line x1="16" y1="290" x2="16" y2="312" stroke="#404040" stroke-width="1"/><svg x="34" y="293" width="16" height="16" viewBox="0 0 16 16" fill="none"><path d="M0 0h24v24H0z"/><path fill="#42a5f5" d="M8 1C4.136 1 1 4.136 1 8s3.136 7 7 7 7-3.136 7-7-3.136-7-7-7m1 11H7V7.5h2zm0-6H7V4h2z"/></svg><text x="56" y="305.5" font-family="Segoe UI, -apple-system, BlinkMacSystemFont, Helvetica, Arial, sans-serif" font-size="13" fill="#cccccc">README.md</text></svg>
