<svg xmlns="http://www.w3.org/2000/svg" width="340" height="184" viewBox="0 0 340 184"><rect width="100%" height="100%" rx="6" fill="#181818"/><path d="M9 13 l4 4 l4 -4" fill="none" stroke="#cccccc" stroke-width="1.2"/><svg x="22" y="7" width="16" height="16" viewBox="0 0 16 16"><path d="M14.483 6H4.721a1 1 0 0 0-.949.684L2 12V5h12a1 1 0 0 0-1-1H7.562a1 1 0 0 1-.64-.232l-.644-.536A1 1 0 0 0 5.638 3H2a1 1 0 0 0-1 1v8a1 1 0 0 0 1 1h11l2.403-5.606A1 1 0 0 0 14.483 6" fill="#90a4ae" /></svg><text x="44" y="19.5" font-family="Segoe UI, -apple-system, BlinkMacSystemFont, Helvetica, Arial, sans-serif" font-size="13" fill="#cccccc">SavesV2</text><line x1="16" y1="26" x2="16" y2="48" stroke="#404040" stroke-width="1"/><path d="M21 35 l4 4 l4 -4" fill="none" stroke="#cccccc" stroke-width="1.2"/><svg x="34" y="29" width="16" height="16" viewBox="0 0 16 16"><path id="folder" fill="#00bfa5" d="M14.483 6H4.721a1 1 0 0 0-.949.684L2 12V5h12a1 1 0 0 0-1-1H7.562a1 1 0 0 1-.64-.232l-.644-.536A1 1 0 0 0 5.638 3H2a1 1 0 0 0-1 1v8a1 1 0 0 0 1 1h11l2.403-5.606A1 1 0 0 0 14.483 6"/><path id="motive" fill="#a7ffeb" d="M8 6v1h1v6a2 2 0 0 0 4 0V7h1V6Zm2.5 7a.5.5 0 1 1 .5-.5.5.5 0 0 1-.5.5m1-2a.5.5 0 1 1 .5-.5.5.5 0 0 1-.5.5m.5-2h-2V7h2z"/></svg><text x="56" y="41.5" font-family="Segoe UI, -apple-system, BlinkMacSystemFont, Helvetica, Arial, sans-serif" font-size="13" fill="#cccccc">spec</text><line x1="16" y1="48" x2="16" y2="70" stroke="#404040" stroke-width="1"/><line x1="28" y1="48" x2="28" y2="70" stroke="#404040" stroke-width="1"/><svg x="46" y="51" width="16" height="16" viewBox="0 0 24 24" fill="none"><path fill="#9e9e9e" d="M6.278 22 6 19.556l3.167-8.723a4.37 4.37 0 0 0 1.944 1.056l-3.055 8.389zm11.666 0-1.777-1.722-3.056-8.39q.556-.138 1.042-.402a4.4 4.4 0 0 0 .903-.653l3.166 8.723zm-5.833-11.111q-1.389 0-2.361-.972-.972-.973-.972-2.361 0-1.084.624-1.932.626-.846 1.598-1.18V2h2.222v2.444a3.27 3.27 0 0 1 1.598 1.18q.624.849.624 1.932 0 1.389-.972 2.36-.972.973-2.36.973Zm0-2.222q.473 0 .792-.32t.32-.791q0-.473-.32-.793a1.08 1.08 0 0 0-.792-.319q-.472 0-.791.32t-.32.792.32.79q.319.32.791.32Z"/></svg><text x="68" y="63.5" font-family="Segoe UI, -apple-system, BlinkMacSystemFont, Helvetica, Arial, sans-serif" font-size="13" fill="#8a8f98">01_Draft.md</text><line x1="16" y1="70" x2="16" y2="92" stroke="#404040" stroke-width="1"/><line x1="28" y1="70" x2="28" y2="92" stroke="#404040" stroke-width="1"/><svg x="46" y="73" width="16" height="16" viewBox="0 0 24 24" fill="none"><path fill="#ffc107" d="M6.278 22 6 19.556l3.167-8.723a4.37 4.37 0 0 0 1.944 1.056l-3.055 8.389zm11.666 0-1.777-1.722-3.056-8.39q.556-.138 1.042-.402a4.4 4.4 0 0 0 .903-.653l3.166 8.723zm-5.833-11.111q-1.389 0-2.361-.972-.972-.973-.972-2.361 0-1.084.624-1.932.626-.846 1.598-1.18V2h2.222v2.444a3.27 3.27 0 0 1 1.598 1.18q.624.849.624 1.932 0 1.389-.972 2.36-.972.973-2.36.973Zm0-2.222q.473 0 .792-.32t.32-.791q0-.473-.32-.793a1.08 1.08 0 0 0-.792-.319q-.472 0-.791.32t-.32.792.32.79q.319.32.791.32Z"/></svg><text x="68" y="85.5" font-family="Segoe UI, -apple-system, BlinkMacSystemFont, Helvetica, Arial, sans-serif" font-size="13" fill="#5aa0ff">02_Review.md</text><line x1="16" y1="92" x2="16" y2="114" stroke="#404040" stroke-width="1"/><line x1="28" y1="92" x2="28" y2="114" stroke="#404040" stroke-width="1"/><svg x="46" y="95" width="16" height="16" viewBox="0 0 24 24" fill="none"><path fill="#4caf50" d="M6.278 22 6 19.556l3.167-8.723a4.37 4.37 0 0 0 1.944 1.056l-3.055 8.389zm11.666 0-1.777-1.722-3.056-8.39q.556-.138 1.042-.402a4.4 4.4 0 0 0 .903-.653l3.166 8.723zm-5.833-11.111q-1.389 0-2.361-.972-.972-.973-.972-2.361 0-1.084.624-1.932.626-.846 1.598-1.18V2h2.222v2.444a3.27 3.27 0 0 1 1.598 1.18q.624.849.624 1.932 0 1.389-.972 2.36-.972.973-2.36.973Zm0-2.222q.473 0 .792-.32t.32-.791q0-.473-.32-.793a1.08 1.08 0 0 0-.792-.319q-.472 0-.791.32t-.32.792.32.79q.319.32.791.32Z"/></svg><text x="68" y="107.5" font-family="Segoe UI, -apple-system, BlinkMacSystemFont, Helvetica, Arial, sans-serif" font-size="13" fill="#3cb371">03_Accepted.md</text><line x1="16" y1="114" x2="16" y2="136" stroke="#404040" stroke-width="1"/><line x1="28" y1="114" x2="28" y2="136" stroke="#404040" stroke-width="1"/><svg x="46" y="117" width="16" height="16" viewBox="0 0 24 24" fill="none"><path fill="#2196f3" d="M6.278 22 6 19.556l3.167-8.723a4.37 4.37 0 0 0 1.944 1.056l-3.055 8.389zm11.666 0-1.777-1.722-3.056-8.39q.556-.138 1.042-.402a4.4 4.4 0 0 0 .903-.653l3.166 8.723zm-5.833-11.111q-1.389 0-2.361-.972-.972-.973-.972-2.361 0-1.084.624-1.932.626-.846 1.598-1.18V2h2.222v2.444a3.27 3.27 0 0 1 1.598 1.18q.624.849.624 1.932 0 1.389-.972 2.36-.972.973-2.36.973Zm0-2.222q.473 0 .792-.32t.32-.791q0-.473-.32-.793a1.08 1.08 0 0 0-.792-.319q-.472 0-.791.32t-.32.792.32.79q.319.32.791.32Z"/></svg><text x="68" y="129.5" font-family="Segoe UI, -apple-system, BlinkMacSystemFont, Helvetica, Arial, sans-serif" font-size="13" fill="#6cb6ff">04_Living.md</text><line x1="16" y1="136" x2="16" y2="158" stroke="#404040" stroke-width="1"/><line x1="28" y1="136" x2="28" y2="158" stroke="#404040" stroke-width="1"/><svg x="46" y="139" width="16" height="16" viewBox="0 0 24 24" fill="none"><path fill="#616161" d="M6.278 22 6 19.556l3.167-8.723a4.37 4.37 0 0 0 1.944 1.056l-3.055 8.389zm11.666 0-1.777-1.722-3.056-8.39q.556-.138 1.042-.402a4.4 4.4 0 0 0 .903-.653l3.166 8.723zm-5.833-11.111q-1.389 0-2.361-.972-.972-.973-.972-2.361 0-1.084.624-1.932.626-.846 1.598-1.18V2h2.222v2.444a3.27 3.27 0 0 1 1.598 1.18q.624.849.624 1.932 0 1.389-.972 2.36-.972.973-2.36.973Zm0-2.222q.473 0 .792-.32t.32-.791q0-.473-.32-.793a1.08 1.08 0 0 0-.792-.319q-.472 0-.791.32t-.32.792.32.79q.319.32.791.32Z"/></svg><text x="68" y="151.5" font-family="Segoe UI, -apple-system, BlinkMacSystemFont, Helvetica, Arial, sans-serif" font-size="13" fill="#5a5f66">05_Superseded.md</text><line x1="16" y1="158" x2="16" y2="180" stroke="#404040" stroke-width="1"/><line x1="28" y1="158" x2="28" y2="180" stroke="#404040" stroke-width="1"/><svg x="46" y="161" width="16" height="16" viewBox="0 0 24 24" fill="none"><path d="M0 0h24v24H0z"/><path fill="#607d8b" d="M4 6H2v14c0 1.1.9 2 2 2h14v-2H4zm16-4H8c-1.1 0-2 .9-2 2v12c0 1.1.9 2 2 2h12c1.1 0 2-.9 2-2V4c0-1.1-.9-2-2-2m0 14H8V4h12zM10 9h8v2h-8zm0 3h4v2h-4zm0-6h8v2h-8z"/></svg><text x="68" y="173.5" font-family="Segoe UI, -apple-system, BlinkMacSystemFont, Helvetica, Arial, sans-serif" font-size="13" fill="#cccccc">06_Explainer.md</text></svg>
